<?xml version="1.0" encoding="UTF-8"?>
<svg version="1.1" xmlns="http://www.w3.org/2000/svg" width="512" height="512">
<path d="M0 0 C0.72665206 -0.00538554 1.45330412 -0.01077108 2.20197594 -0.01631981 C4.61384179 -0.03051896 7.02515253 -0.02351592 9.43704224 -0.01637268 C11.1756738 -0.02208051 12.91430163 -0.02904637 14.65292358 -0.03717041 C19.35963706 -0.0550723 24.0661638 -0.0539389 28.77290106 -0.04822803 C32.70913341 -0.04513155 36.64533012 -0.0512338 40.58155739 -0.05726677 C49.87163213 -0.07130095 59.16161489 -0.06976022 68.45169067 -0.05836487 C78.01978355 -0.04688748 87.587596 -0.0609555 97.15565193 -0.08776134 C105.38522079 -0.1099498 113.61470184 -0.11654855 121.84429848 -0.11068493 C126.75294532 -0.10732135 131.66141248 -0.10969044 136.57003403 -0.12693596 C141.18799936 -0.14245297 145.8055508 -0.13839699 150.42350006 -0.11963081 C152.11249083 -0.11595792 153.80151259 -0.11901528 155.4904747 -0.1295166 C173.85740252 -0.23494361 173.85740252 -0.23494361 180.34768677 4.38768005 C184.7274496 8.73790018 187.74051605 13.4569377 190.42532349 18.97532654 C190.78708176 19.69811295 191.14884003 20.42089935 191.52156067 21.16558838 C192.69972437 23.52536349 193.86361064 25.89186873 195.02737427 28.2587738 C195.84747038 29.90830404 196.66845824 31.5573912 197.49029541 33.20605469 C199.639591 37.52363724 201.77680081 41.84709143 203.91146851 46.17192078 C206.09641983 50.59318499 208.29285949 55.00873299 210.48831177 59.42478943 C214.78597249 68.0735599 219.07087492 76.72858303 223.34768677 85.38768005 C224.93189391 85.39126258 224.93189391 85.39126258 226.54810524 85.39491749 C252.23680529 85.45369119 277.92541139 85.52956084 303.61400795 85.62339497 C316.03678159 85.6683758 328.45952641 85.70778523 340.88235474 85.7341156 C351.70907989 85.7570771 362.53571403 85.7904545 373.36236703 85.83638161 C379.09590725 85.86033867 384.82935718 85.87905121 390.56294632 85.88529396 C395.95885083 85.89133352 401.35452428 85.91129273 406.75034332 85.94195557 C408.73125226 85.95075386 410.71219136 85.95445468 412.69311905 85.95268822 C415.39754815 85.95103794 418.10127078 85.96771382 420.80560303 85.98895264 C421.58966133 85.98410506 422.37371963 85.97925748 423.18153727 85.97426301 C429.36074574 86.05436154 433.26725619 87.65398791 437.97268677 91.57518005 C444.36533905 99.14542618 444.92839421 105.46181711 444.85562134 115.06468201 C444.86498128 116.96532016 444.86498128 116.96532016 444.87453032 118.90435505 C444.89117254 122.40546883 444.88300094 125.90614446 444.87058544 129.40725946 C444.86151616 133.18920461 444.87551396 136.97107566 444.88650513 140.75300598 C444.90427497 148.15549927 444.90045725 155.55783017 444.88885456 162.96032977 C444.87981446 168.97743736 444.87859874 174.9944995 444.88294983 181.01161194 C444.88356276 181.86858022 444.88417569 182.7255485 444.8848072 183.60848552 C444.88608612 185.34949741 444.88738298 187.09050929 444.88869756 188.83152115 C444.90009886 205.15015861 444.88699673 221.46870613 444.8654961 237.78732884 C444.84762552 251.78404042 444.85072975 265.7806193 444.86917114 279.77732849 C444.89058581 296.03828077 444.89900027 312.29915426 444.88672209 328.56011868 C444.88544792 330.29466183 444.88419043 332.02920499 444.88294983 333.76374817 C444.88202418 335.04383105 444.88202418 335.04383105 444.88107982 336.34977418 C444.87762871 342.35841059 444.88345011 348.36699695 444.89286804 354.37562561 C444.90409604 361.69995071 444.90103121 369.02410438 444.87974507 376.34840989 C444.86924534 380.08414407 444.86509419 383.8195926 444.87834167 387.55532455 C444.8924933 391.60735687 444.87557599 395.65867033 444.85562134 399.7106781 C444.86900567 401.47682952 444.86900567 401.47682952 444.88266039 403.27866077 C444.80308663 411.60029024 443.48435106 417.17972793 437.59768677 423.20018005 C431.49035139 427.31088656 426.01156543 428.76218444 418.61329842 428.76799679 C417.87430945 428.77265671 417.13532048 428.77731663 416.3739379 428.78211775 C413.90798287 428.79402903 411.44258276 428.78468753 408.97662354 428.77536011 C407.18667926 428.77953472 405.39673764 428.78501294 403.60680091 428.79167992 C398.69584598 428.80613649 393.78505885 428.8018891 388.87409472 428.79451311 C383.57472834 428.78978427 378.27539841 428.80228879 372.9760437 428.81253052 C362.59706577 428.82972952 352.21814835 428.83055622 341.83915986 428.82531761 C333.40312135 428.82127667 324.96710073 428.82271858 316.53106308 428.82806587 C314.73025964 428.82918851 314.73025964 428.82918851 312.89307632 428.83033382 C310.4542079 428.83186529 308.01533949 428.83340364 305.57647108 428.83494879 C282.7033788 428.84867786 259.83032073 428.84323331 236.95722924 428.83176357 C216.03231334 428.82183116 195.10748585 428.83477131 174.18258359 428.85869776 C152.69621704 428.88308109 131.20989169 428.89269849 109.72351158 428.88604504 C97.66081348 428.88255107 85.5981834 428.88479663 73.53549576 428.90229607 C63.26659297 428.91700845 52.99780607 428.91766605 42.72890557 428.90022516 C37.4901992 428.89170484 32.25169995 428.88959092 27.0130043 428.90487671 C22.21513465 428.91870285 17.41764997 428.91398718 12.6198027 428.89463747 C10.88636372 428.8908708 9.15289406 428.89381864 7.41948237 428.90424912 C-12.56561354 429.01593184 -12.56561354 429.01593184 -19.57565296 422.63768476 C-24.40586219 417.46789584 -25.9012645 412.67555614 -25.90958214 405.61030865 C-25.91484125 404.602356 -25.91484125 404.602356 -25.92020661 403.57404068 C-25.92952443 401.31812776 -25.92459638 399.06247276 -25.91973877 396.80654907 C-25.92347484 395.17451225 -25.92807619 393.54247722 -25.93346941 391.91044503 C-25.94572017 387.42214298 -25.94543651 382.93391535 -25.94308066 378.44560039 C-25.94267302 373.60635085 -25.95370661 368.76712534 -25.9631958 363.92788696 C-25.97981813 354.44554596 -25.9853059 344.96322981 -25.98642056 335.48087545 C-25.98737044 327.7741558 -25.99147775 320.06744436 -25.99782181 312.36072731 C-26.01543753 290.51712794 -26.02466015 268.67354824 -26.02316086 246.82994171 C-26.02308095 245.65202027 -26.02300104 244.47409882 -26.0229187 243.26048279 C-26.02283694 242.08112533 -26.02275518 240.90176787 -26.02267094 239.68667231 C-26.02185793 220.57084212 -26.04099847 201.45509071 -26.06919543 182.33928331 C-26.09791061 162.71754544 -26.11173648 143.095846 -26.11000788 123.47408658 C-26.10934351 112.45545044 -26.11485645 101.43689688 -26.13636398 90.41827965 C-26.15455778 81.03711234 -26.15893793 71.65606505 -26.14534514 62.27488776 C-26.13880641 57.48807304 -26.13873091 52.70148868 -26.15605164 47.91469574 C-26.17174742 43.53191704 -26.16895458 39.14955203 -26.15148337 34.76678363 C-26.14840576 33.18200802 -26.1520745 31.5972018 -26.16320352 30.01246228 C-26.22745102 20.21419511 -26.09919089 12.93562311 -18.90231323 5.57518005 C-12.82881781 1.48725044 -7.35686677 0.01383334 0 0 Z " fill="#4194FE" transform="translate(46.652313232421875,41.61231994628906)"/>
<path d="M0 0 C0.72665206 -0.00538554 1.45330412 -0.01077108 2.20197594 -0.01631981 C4.61384179 -0.03051896 7.02515253 -0.02351592 9.43704224 -0.01637268 C11.1756738 -0.02208051 12.91430163 -0.02904637 14.65292358 -0.03717041 C19.35963706 -0.0550723 24.0661638 -0.0539389 28.77290106 -0.04822803 C32.70913341 -0.04513155 36.64533012 -0.0512338 40.58155739 -0.05726677 C49.87163213 -0.07130095 59.16161489 -0.06976022 68.45169067 -0.05836487 C78.01978355 -0.04688748 87.587596 -0.0609555 97.15565193 -0.08776134 C105.38522079 -0.1099498 113.61470184 -0.11654855 121.84429848 -0.11068493 C126.75294532 -0.10732135 131.66141248 -0.10969044 136.57003403 -0.12693596 C141.18799936 -0.14245297 145.8055508 -0.13839699 150.42350006 -0.11963081 C152.11249083 -0.11595792 153.80151259 -0.11901528 155.4904747 -0.1295166 C175.02572399 -0.24164983 175.02572399 -0.24164983 182.13656616 5.94374371 C185.69672631 9.81782912 188.13211205 14.25706583 190.42532349 18.9594574 C190.78708176 19.68063751 191.14884003 20.40181763 191.52156067 21.14485168 C192.69981785 23.49976744 193.86373742 25.8614481 195.02737427 28.22361755 C195.84752897 29.87072362 196.66851599 31.51741549 197.49029541 33.16371155 C199.20238375 36.59852261 200.90803505 40.03642045 202.60842896 43.47703552 C204.7926047 47.89654107 206.9872469 52.31073821 209.18595695 56.72302818 C211.28206978 60.92999825 213.37398049 65.13905161 215.46487427 69.34861755 C215.86547939 70.15473858 216.26608452 70.9608596 216.67882919 71.79140854 C217.80364723 74.05723801 218.92556747 76.32447532 220.04641724 78.5922699 C220.38296829 79.26963196 220.71951935 79.94699402 221.06626892 80.6448822 C223.34768677 85.2725488 223.34768677 85.2725488 223.34768677 86.38768005 C141.17768677 86.38768005 59.00768677 86.38768005 -25.65231323 86.38768005 C-25.65231323 12.47858914 -25.65231323 12.47858914 -18.90231323 5.57518005 C-12.82881781 1.48725044 -7.35686677 0.01383334 0 0 Z " fill="#366CFB" transform="translate(46.652313232421875,41.61231994628906)"/>
</svg>
