<?xml version="1.0" encoding="utf-8"?>
<!-- Generator: Adobe Illustrator 27.7.0, SVG Export Plug-In . SVG Version: 6.00 Build 0)  -->
<svg version="1.1" id="Layer_1" xmlns="http://www.w3.org/2000/svg" xmlns:xlink="http://www.w3.org/1999/xlink" x="0px" y="0px"
	 viewBox="0 0 512 512" style="enable-background:new 0 0 512 512;" xml:space="preserve">
<g>
	<path d="M28.44,85.33h28.44c0.03-15.7,12.75-28.42,28.44-28.44h341.33c15.7,0.03,28.42,12.75,28.44,28.44v341.33
		c-0.03,15.7-12.75,28.42-28.44,28.44H85.33c-15.7-0.03-28.42-12.75-28.44-28.44V85.33H28.44H0v341.33
		c0.02,47.14,38.19,85.31,85.33,85.33h341.33c47.14-0.02,85.31-38.19,85.33-85.33V85.33C511.98,38.19,473.81,0.02,426.67,0H85.33
		C38.19,0.02,0.02,38.19,0,85.33H28.44z"/>
	<path d="M142.22,28.44v455.11c0,15.71,12.74,28.44,28.44,28.44c15.71,0,28.44-12.74,28.44-28.44V28.44
		C199.11,12.73,186.38,0,170.67,0C154.96,0,142.22,12.73,142.22,28.44"/>
	<path d="M321.22,179l-56.89,56.89c-11.11,11.11-11.11,29.12,0,40.23L321.22,333c11.11,11.11,29.12,11.11,40.23,0
		c11.11-11.11,11.11-29.12,0-40.23L324.67,256l36.78-36.78c11.11-11.11,11.11-29.12,0-40.23C350.34,167.89,332.33,167.89,321.22,179
		L321.22,179z"/>
</g>
</svg>
