<?xml version="1.0" encoding="UTF-8"?>
<svg version="1.1" xmlns="http://www.w3.org/2000/svg" width="512" height="512">
<path d="M0 0 C14.28779609 11.65471061 26.18600363 27.92901481 28.30664062 46.72021484 C28.61820306 54.71835059 28.49586565 62.72036291 28.30664062 70.72021484 C29.07919189 71.01661865 29.85174316 71.31302246 30.64770508 71.6184082 C39.6686411 75.35649325 47.30450403 83.08772347 54.30664062 89.72021484 C55.72783203 91.02732422 55.72783203 91.02732422 57.17773438 92.36083984 C76.17841571 110.23249068 88.29994706 133.54669775 95.55664062 158.34521484 C95.8030127 159.17931885 96.04938477 160.01342285 96.30322266 160.87280273 C100.04911592 174.18793886 100.65733445 187.30214927 100.86914062 201.03271484 C100.91216154 223.77364803 100.91216154 223.77364803 103.99414062 246.22021484 C104.1671167 247.00936279 104.34009277 247.79851074 104.51831055 248.61157227 C112.41303453 282.8014569 133.31201292 309.79556737 162.61914062 328.40771484 C163.46726318 328.93034912 164.31538574 329.4529834 165.18920898 329.99145508 C172.43262043 334.52598319 178.53559182 339.39975938 182.55664062 347.09521484 C183.01554687 347.94857422 183.47445313 348.80193359 183.94726562 349.68115234 C187.25033974 357.06561113 188.84275761 363.48201118 188.74414062 371.59521484 C188.73278076 372.91175049 188.73278076 372.91175049 188.72119141 374.25488281 C188.54877469 381.05212865 187.50043562 386.65200434 184.30664062 392.72021484 C183.89414062 393.56583984 183.48164063 394.41146484 183.05664062 395.28271484 C176.87419216 406.80455063 167.32580345 413.16009887 155.30664062 417.72021484 C152.38863791 418.58326617 149.80281556 418.84403665 146.76348877 418.84046936 C145.40476906 418.84253136 145.40476906 418.84253136 144.01860046 418.84463501 C143.03245255 418.84103973 142.04630463 418.83744446 141.03027344 418.83374023 C139.98605728 418.83388626 138.94184113 418.83403229 137.86598206 418.83418274 C134.41388879 418.83348598 130.96184946 418.82570458 127.50976562 418.81787109 C125.11651641 418.81600608 122.72326682 418.81458257 120.33001709 418.81358337 C114.03028307 418.8097648 107.73057209 418.79994011 101.43084717 418.78887939 C95.00272941 418.77865112 88.57460793 418.77408271 82.14648438 418.76904297 C69.53319329 418.75831728 56.91991818 418.7414409 44.30664062 418.72021484 C44.24501236 419.46732727 44.18338409 420.2144397 44.11988831 420.98419189 C44.03528854 421.96861267 43.95068878 422.95303345 43.86352539 423.96728516 C43.78127213 424.94127258 43.69901886 425.91526001 43.61427307 426.91876221 C41.34480521 447.58565484 28.28973649 466.76256292 12.73242188 479.88818359 C-9.01733566 496.31432897 -32.51497062 501.31418768 -59.27392578 498.44335938 C-70.34143817 496.79689467 -80.05556522 492.24081097 -89.69335938 486.72021484 C-90.54414063 486.23681641 -91.39492187 485.75341797 -92.27148438 485.25537109 C-111.42690534 473.36936348 -123.4774028 454.28778667 -130.00195312 433.07568359 C-130.63113756 430.02218399 -130.96876621 427.11209582 -131.23657227 424.01049805 C-131.3231459 423.01983841 -131.40971954 422.02917877 -131.49891663 421.00849915 C-131.56308273 420.25336533 -131.62724884 419.49823151 -131.69335938 418.72021484 C-133.0094368 418.72909729 -134.32551422 418.73797974 -135.68147278 418.74713135 C-148.11314077 418.82838593 -160.54475454 418.88826129 -172.9766283 418.92746353 C-179.367263 418.94829566 -185.75768249 418.97653375 -192.14819336 419.02197266 C-198.32089528 419.06558581 -204.4933908 419.08938483 -210.66623497 419.09972382 C-213.01564467 419.1070874 -215.36504369 419.12146652 -217.71436501 419.14313507 C-221.01725888 419.17237402 -224.319311 419.17616221 -227.62231445 419.17431641 C-228.58329544 419.18869751 -229.54427643 419.20307861 -230.53437805 419.21789551 C-242.25810059 419.14747579 -253.37481882 414.35373563 -262.10742188 406.56787109 C-271.87802317 396.48683263 -276.25261585 384.677093 -276.69335938 370.72021484 C-275.94487853 357.21762037 -270.68606186 345.14293549 -260.81835938 335.78271484 C-256.17501821 331.82727607 -251.06354498 328.79306314 -245.86010742 325.64892578 C-238.84719836 321.34213399 -232.77024502 316.24543995 -226.69335938 310.72021484 C-225.71689453 309.8675 -225.71689453 309.8675 -224.72070312 308.99755859 C-207.10558891 292.71502985 -195.96060722 268.50983027 -191.25585938 245.34521484 C-191.10415283 244.59884766 -190.95244629 243.85248047 -190.79614258 243.08349609 C-188.84475614 232.35492399 -188.65206723 221.42673973 -188.51757812 210.55224609 C-188.50553848 209.65773743 -188.49349884 208.76322876 -188.48109436 207.84161377 C-188.43307437 204.15326869 -188.38540265 200.4652431 -188.36743164 196.77661133 C-188.21605981 170.58462769 -182.30037991 146.70444276 -169.69335938 123.72021484 C-169.18933594 122.79724609 -168.6853125 121.87427734 -168.16601562 120.92333984 C-157.7313006 102.7709824 -139.15891332 79.21095971 -118.93945312 71.69677734 C-116.51563694 69.96818601 -116.51563694 69.96818601 -116.26953125 67.5703125 C-116.11470961 64.69603816 -116.10499696 61.84849613 -116.13085938 58.97021484 C-115.745639 38.85765629 -109.81759444 21.73664238 -95.46679688 7.36865234 C-69.8617895 -17.08232653 -29.09438342 -21.98857524 0 0 Z " fill="#4194FE" transform="translate(299.693359375,13.27978515625)"/>
<path d="M0 0 C58.08 0 116.16 0 176 0 C173.76386793 24.59745275 163.40669399 45.15387718 144.42578125 61.16796875 C122.67602372 77.59411413 99.17838875 82.59397283 72.41943359 79.72314453 C61.3519212 78.07667983 51.63779415 73.52059612 42 68 C41.14921875 67.51660156 40.2984375 67.03320312 39.421875 66.53515625 C20.26645404 54.64914864 8.21595658 35.56757183 1.69140625 14.35546875 C0.71901577 9.63635338 0.43622442 4.79846865 0 0 Z " fill="#366BFB" transform="translate(168,432)"/>
<path d="M0 0 C14.30907853 11.67207093 26.14597148 27.91439081 28.30664062 46.72021484 C28.61584203 54.38515482 28.49665085 62.05354578 28.30664062 69.72021484 C24.10879157 68.97395015 21.11543448 67.66053878 17.36914062 65.59521484 C4.54972862 58.87584421 -10.30617278 54.2584675 -24.69335938 52.72021484 C-25.43070312 52.61193359 -26.16804688 52.50365234 -26.92773438 52.39208984 C-41.00583755 50.54737288 -55.76573377 51.16238127 -69.69335938 53.72021484 C-71.63855469 54.07019531 -71.63855469 54.07019531 -73.62304688 54.42724609 C-87.48659114 57.18672795 -101.64235192 62.29508623 -113.69335938 69.72021484 C-114.35335937 69.72021484 -115.01335937 69.72021484 -115.69335938 69.72021484 C-116.45373068 47.28048778 -114.00167582 27.46111743 -98.31835938 10.28271484 C-72.75869445 -16.36729727 -30.54962299 -23.08839731 0 0 Z " fill="#376CFB" transform="translate(299.693359375,13.27978515625)"/>
</svg>
