<?xml version="1.0" encoding="UTF-8"?>
<svg version="1.1" xmlns="http://www.w3.org/2000/svg" width="225" height="225">
<path d="M0 0 C74.25 0 148.5 0 225 0 C225 74.25 225 148.5 225 225 C150.75 225 76.5 225 0 225 C0 150.75 0 76.5 0 0 Z " fill="#F8F8F8" transform="translate(0,0)"/>
<path d="M0 0 C5.6585843 1.71289683 10.94337973 1.92668239 16.82421875 1.84375 C17.83355469 1.83722412 18.84289062 1.83069824 19.8828125 1.82397461 C26.15873021 1.71110932 31.93930605 1.16648739 37.94921875 -0.77734375 C44.67108138 -2.80440545 48.8904352 -2.57093443 55.07421875 0.71875 C55.76717041 1.07936523 56.46012207 1.43998047 57.17407227 1.81152344 C71.99489513 9.86133441 82.39498491 21.68916943 89.82421875 36.78125 C90.30725464 37.73862061 90.30725464 37.73862061 90.80004883 38.71533203 C94.15191833 45.9512546 94.78480087 52.14666062 96.44921875 60.46875 C44.63921875 60.46875 -7.17078125 60.46875 -60.55078125 60.46875 C-58.39874155 38.94835299 -48.09305834 21.94868125 -31.65234375 8.0625 C-27.82602207 5.16075419 -23.76516573 2.75932679 -19.55078125 0.46875 C-18.92042969 0.11425781 -18.29007813 -0.24023438 -17.640625 -0.60546875 C-11.45908184 -3.71736177 -6.14492173 -2.09525071 0 0 Z " fill="#0180FE" transform="translate(94.55078125,141.53125)"/>
<path d="M0 0 C0.92167969 0.30679687 1.84335938 0.61359375 2.79296875 0.9296875 C13.37350202 4.8186034 22.37839379 12.11199622 28 22 C35.05560702 37.77925157 35.63147088 51.72279316 30 68 C24.69768687 80.59108363 16.47203079 87.35035571 4.4296875 93.26171875 C-2.20352987 95.95469161 -8.55290038 96.37912987 -15.625 96.4375 C-16.93078003 96.45272705 -16.93078003 96.45272705 -18.26293945 96.46826172 C-31.38351866 96.2925452 -42.39693123 91.09501519 -51.9296875 82.2265625 C-59.37318826 74.22128809 -64.22197123 62.89240283 -65 52 C-65.06316406 51.2265625 -65.12632813 50.453125 -65.19140625 49.65625 C-65.85459839 35.10880947 -60.68082582 21.99912591 -51 11.3125 C-37.99412177 -1.07823534 -17.07826311 -6.30071843 0 0 Z " fill="#0180FE" transform="translate(128,25)"/>
</svg>
